<?xml version="1.0" encoding="utf-8"?>
<!-- Generator: Adobe Illustrator 23.0.2, SVG Export Plug-In . SVG Version: 6.00 Build 0)  -->
<svg version="1.1" id="Layer_1" xmlns="http://www.w3.org/2000/svg" xmlns:xlink="http://www.w3.org/1999/xlink" x="0px" y="0px"
	 viewBox="0 0 456 178" style="enable-background:new 0 0 456 178;" xml:space="preserve">
<style type="text/css">
	.st0{fill-rule:evenodd;clip-rule:evenodd;fill:#FEF502;}
	.st1{fill-rule:evenodd;clip-rule:evenodd;fill:#2E2E2C;}
	.st2{fill:#2E2E2C;}
	.st3{fill-rule:evenodd;clip-rule:evenodd;fill:#E6CB00;}
</style>
<g id="Page-1">
	<g id="logo">
		<polygon id="Path" class="st0" points="157.7,0 0,0 0,157.4 102.1,157.4 124.2,177.2 124.2,157.4 157.7,157.4 		"/>
		<path class="st1" d="M59.2,115.1c-2.3,0-4.4-1.5-5.2-3.7l-5.3,1.3c1.4,4.6,5.7,7.7,10.5,7.7s9.1-3.1,10.5-7.7l-5.3-1.3
			C63.6,113.7,61.5,115.1,59.2,115.1L59.2,115.1z"/>
		<path id="Shape" class="st2" d="M98.3,126.4l9-4.2c0.7,2.8,2.3,5.3,4.7,7.1c2.6,1.7,5.6,2.6,8.8,2.4c2.9,0.2,5.8-0.9,8-2.8
			c2-1.9,3.1-4.7,3-7.5c0-4.1-3.4-7.7-10.2-10.9c-0.9-0.5-1.7-0.8-2.2-1c-7.7-3.7-12.8-7.1-15.3-10.2c-2.6-3.1-3.9-7-3.8-11.1
			c-0.2-5.2,1.9-10.2,5.8-13.8c3.9-3.5,8.9-5.3,15.2-5.3c4.5-0.1,8.9,0.9,12.9,3c3.4,1.9,5.9,4.9,7.2,8.5l-8.8,4.5
			c-1.1-1.9-2.7-3.6-4.6-4.8c-4.1-2.3-9.2-2-13,0.8c-1.8,1.6-2.8,3.9-2.7,6.4c0,4.2,3.9,8.1,11.8,11.7c0.6,0.3,1.1,0.5,1.4,0.7
			c6.9,3.2,11.6,6.3,14.2,9.3c2.6,3.2,4,7.2,3.8,11.3c0,6.6-2.1,11.8-6.2,15.7s-9.8,5.8-16.8,5.8c-5.9,0-10.8-1.3-14.6-4.1
			C101.8,135.3,99.2,131.2,98.3,126.4L98.3,126.4z M58.9,141.6c16.5,0,30-13.4,30-29.9V71.2c-3.8-0.3-7.7-0.6-11.5-0.8v13.1v28.2
			c0,6.4-3.3,12.3-8.7,15.7c-5.4,3.4-12.2,3.7-17.9,0.9l-7.7,8.8C47.9,140.1,53.4,141.6,58.9,141.6L58.9,141.6z"/>
		<path class="st3" d="M29,71.2v11.7h11.5v-1.1V70.4C36.6,70.7,32.8,70.9,29,71.2z"/>
		<path class="st3" d="M44.7,70.2v11.4c4.1-0.2,8.2-0.3,12.1-0.3V69.8C52.7,69.9,48.7,70,44.7,70.2z"/>
		<path class="st3" d="M61,69.8v11.4c4,0,8.1,0.1,12.2,0.3V70.2C69.1,70,65.1,69.9,61,69.8z"/>
		<rect id="Rectangle" x="29" y="87.1" class="st3" width="11.5" height="12.1"/>
		<path class="st3" d="M40.4,111.7v-8.2H29v8.2c0,1.9,0.2,3.7,0.5,5.6l11.2-2.7C40.5,113.6,40.4,112.7,40.4,111.7z"/>
		<path class="st3" d="M47.2,126c-2.4-2-4.3-4.5-5.4-7.3l-11.2,2.8c1.8,5.1,4.9,9.7,9.1,13.2L47.2,126z"/>
		<polygon class="st1" points="179.3,141 179.3,70.5 190.3,70.5 223.7,119.1 223.7,70.5 234.9,70.5 234.9,141 224.2,141 190.4,92.3 
			190.4,141 		"/>
		<path class="st2" d="M285.4,140.7h-10.6v-7.5h-0.1c-3.3,5.7-8.2,8.6-14.6,8.6c-4.7,0-8.4-1.3-11.1-3.8c-2.7-2.7-4.2-6.4-4-10.2
			c0-9,5.2-14.3,15.7-15.8l14.3-2c0-6.8-3.3-10.3-9.8-10.3c-5.7,0-11.2,2.1-15.5,5.9v-9.5c5.3-3.1,11.4-4.6,17.5-4.5
			c12.1,0,18.2,6,18.2,17.9L285.4,140.7z M274.8,117.2l-10.1,1.4c-2.5,0.2-4.9,1-7.1,2.3c-1.6,1.1-2.4,3.1-2.4,5.9
			c0,1.9,0.7,3.7,2.2,5c1.6,1.4,3.7,2,5.9,1.9c3.1,0.1,6.1-1.2,8.2-3.5c2.2-2.4,3.4-5.5,3.3-8.8V117.2z"/>
		<path class="st1" d="M323.2,140.3c-2.6,1.1-5.5,1.7-8.4,1.6c-9.3,0-14-4.5-14-13.4v-27.1h-8v-8.5h8V81.7l10.9-3.1v14.2h11.5v8.5
			h-11.5v24c0,2.8,0.5,4.9,1.5,6.1c1,1.2,2.7,1.8,5.2,1.8c1.7,0,3.4-0.5,4.8-1.6L323.2,140.3z"/>
		<path class="st2" d="M339.9,82.7c-1.7,0-3.3-0.6-4.6-1.7c-1.3-1.1-1.9-2.7-1.9-4.4c0-1.7,0.6-3.3,1.9-4.5c1.2-1.2,2.9-1.8,4.6-1.8
			c1.7,0,3.4,0.6,4.7,1.8c1.3,1.1,2,2.8,1.9,4.5c0,1.7-0.7,3.2-1.9,4.3C343.3,82.1,341.6,82.7,339.9,82.7L339.9,82.7z M345.3,140.7
			h-10.9v-48h10.9V140.7z"/>
		<path class="st2" d="M378.3,141.9c-7.4,0-13.3-2.2-17.8-6.7s-6.6-10.4-6.6-17.8c0-8,2.3-14.3,6.9-18.9s10.8-6.8,18.7-6.8
			c7.5,0,13.3,2.2,17.5,6.6c4.2,4.4,6.3,10.5,6.3,18.3s-2.3,13.8-6.8,18.4C392.1,139.6,386,141.9,378.3,141.9z M378.9,100.3
			c-3.9-0.2-7.6,1.5-10.1,4.4c-2.5,3-3.7,7.1-3.7,12.3c0,5,1.3,9,3.7,11.9c2.5,2.9,6.2,4.5,10.1,4.3c4.3,0,7.6-1.4,9.9-4.3
			c2.3-2.8,3.5-6.9,3.5-12.2s-1.1-9.4-3.5-12.2C386.4,101.7,383.1,100.3,378.9,100.3L378.9,100.3z"/>
		<path class="st1" d="M455.2,140.7h-10.9v-27c0-9-3.2-13.4-9.5-13.4c-3.2-0.1-6.2,1.3-8.2,3.7c-2.2,2.6-3.4,6-3.2,9.4v27.3h-10.9
			v-48h10.9v8h0.2c3.6-6,8.8-9.1,15.6-9.1c5.2,0,9.2,1.7,12,5.1c2.7,3.4,4.1,8.3,4.1,14.7L455.2,140.7z"/>
		<path class="st1" d="M51.8,93c-2.6,0-4.7,2.1-4.7,4.7c0,2.6,2.1,4.7,4.7,4.7c2.6,0,4.7-2.1,4.7-4.7C56.5,95.1,54.4,93,51.8,93z"/>
		<path class="st1" d="M66,93c-2.6,0-4.7,2.1-4.7,4.7c0,2.6,2.1,4.7,4.7,4.7c2.6,0,4.7-2.1,4.7-4.7C70.7,95.1,68.6,93,66,93z"/>
	</g>
</g>
</svg>
